<mxfile host="app.diagrams.net" modified="2023-04-18T16:31:03.818Z" agent="Mozilla/5.0 (Windows NT 10.0; Win64; x64) AppleWebKit/537.36 (KHTML, like Gecko) Chrome/112.0.0.0 Safari/537.36" etag="d4qIB7ZL8hA5A7ciKyCm" version="21.1.8" type="github">
  <diagram name="Страница 1" id="W7MOy6B0Krg5wk_F27Vn">
    <mxGraphModel dx="1728" dy="937" grid="0" gridSize="10" guides="1" tooltips="1" connect="1" arrows="1" fold="1" page="1" pageScale="1" pageWidth="827" pageHeight="1169" math="0" shadow="0">
      <root>
        <mxCell id="0" />
        <mxCell id="1" parent="0" />
        <mxCell id="yZLABqvoOxmxMA5Gtb_R-1" value="&lt;font style=&quot;font-size: 22px;&quot;&gt;Мобильное устройство пользоватлея&lt;/font&gt;" style="verticalAlign=top;align=left;spacingTop=8;spacingLeft=2;spacingRight=12;shape=cube;size=10;direction=south;fontStyle=4;html=1;whiteSpace=wrap;" vertex="1" parent="1">
          <mxGeometry x="60" y="350" width="290" height="460" as="geometry" />
        </mxCell>
        <mxCell id="yZLABqvoOxmxMA5Gtb_R-4" value="&lt;font style=&quot;font-size: 19px;&quot;&gt;ClientNetworkSupport&lt;/font&gt;" style="html=1;dropTarget=0;whiteSpace=wrap;" vertex="1" parent="1">
          <mxGeometry x="100" y="430" width="195" height="80" as="geometry" />
        </mxCell>
        <mxCell id="yZLABqvoOxmxMA5Gtb_R-5" value="" style="shape=module;jettyWidth=8;jettyHeight=4;" vertex="1" parent="yZLABqvoOxmxMA5Gtb_R-4">
          <mxGeometry x="1" width="20" height="20" relative="1" as="geometry">
            <mxPoint x="-27" y="7" as="offset" />
          </mxGeometry>
        </mxCell>
        <mxCell id="yZLABqvoOxmxMA5Gtb_R-6" value="&lt;font style=&quot;font-size: 19px;&quot;&gt;ClientGUI&lt;/font&gt;" style="html=1;dropTarget=0;whiteSpace=wrap;" vertex="1" parent="1">
          <mxGeometry x="100" y="630" width="195" height="80" as="geometry" />
        </mxCell>
        <mxCell id="yZLABqvoOxmxMA5Gtb_R-7" value="" style="shape=module;jettyWidth=8;jettyHeight=4;" vertex="1" parent="yZLABqvoOxmxMA5Gtb_R-6">
          <mxGeometry x="1" width="20" height="20" relative="1" as="geometry">
            <mxPoint x="-27" y="7" as="offset" />
          </mxGeometry>
        </mxCell>
        <mxCell id="yZLABqvoOxmxMA5Gtb_R-9" style="edgeStyle=orthogonalEdgeStyle;rounded=0;orthogonalLoop=1;jettySize=auto;html=1;endArrow=none;endFill=0;" edge="1" parent="1" source="yZLABqvoOxmxMA5Gtb_R-8" target="yZLABqvoOxmxMA5Gtb_R-6">
          <mxGeometry relative="1" as="geometry">
            <Array as="points">
              <mxPoint x="125" y="720" />
              <mxPoint x="125" y="720" />
            </Array>
          </mxGeometry>
        </mxCell>
        <mxCell id="yZLABqvoOxmxMA5Gtb_R-8" value="" style="ellipse;" vertex="1" parent="1">
          <mxGeometry x="110" y="750" width="30" height="30" as="geometry" />
        </mxCell>
        <mxCell id="yZLABqvoOxmxMA5Gtb_R-11" value="&lt;font style=&quot;font-size: 18px;&quot;&gt;IGUI&lt;/font&gt;" style="text;strokeColor=none;fillColor=none;align=left;verticalAlign=middle;spacingLeft=4;spacingRight=4;overflow=hidden;points=[[0,0.5],[1,0.5]];portConstraint=eastwest;rotatable=0;whiteSpace=wrap;html=1;" vertex="1" parent="1">
          <mxGeometry x="150" y="750" width="80" height="30" as="geometry" />
        </mxCell>
        <mxCell id="yZLABqvoOxmxMA5Gtb_R-13" value="" style="rounded=0;orthogonalLoop=1;jettySize=auto;html=1;endArrow=none;endFill=0;sketch=0;sourcePerimeterSpacing=0;targetPerimeterSpacing=0;exitX=0.284;exitY=1.001;exitDx=0;exitDy=0;exitPerimeter=0;" edge="1" parent="1" source="yZLABqvoOxmxMA5Gtb_R-4">
          <mxGeometry relative="1" as="geometry">
            <mxPoint x="150" y="510" as="sourcePoint" />
            <mxPoint x="155" y="560" as="targetPoint" />
          </mxGeometry>
        </mxCell>
        <mxCell id="yZLABqvoOxmxMA5Gtb_R-14" value="" style="rounded=0;orthogonalLoop=1;jettySize=auto;html=1;endArrow=halfCircle;endFill=0;endSize=6;strokeWidth=1;sketch=0;exitX=0.275;exitY=-0.019;exitDx=0;exitDy=0;exitPerimeter=0;" edge="1" parent="1" source="yZLABqvoOxmxMA5Gtb_R-6">
          <mxGeometry relative="1" as="geometry">
            <mxPoint x="153.57500000000005" y="626.48" as="sourcePoint" />
            <mxPoint x="154" y="596" as="targetPoint" />
          </mxGeometry>
        </mxCell>
        <mxCell id="yZLABqvoOxmxMA5Gtb_R-15" value="" style="ellipse;whiteSpace=wrap;html=1;align=center;aspect=fixed;resizable=0;points=[];outlineConnect=0;sketch=0;" vertex="1" parent="1">
          <mxGeometry x="150" y="560" width="10" height="10" as="geometry" />
        </mxCell>
        <mxCell id="yZLABqvoOxmxMA5Gtb_R-21" value="" style="endArrow=open;dashed=1;endFill=0;endSize=5;html=1;rounded=0;exitX=0.27;exitY=-0.01;exitDx=0;exitDy=0;exitPerimeter=0;jumpSize=1;startSize=0;shadow=0;sourcePerimeterSpacing=0;targetPerimeterSpacing=1;spacing=1;fontSize=2;" edge="1" parent="1">
          <mxGeometry width="160" relative="1" as="geometry">
            <mxPoint x="153.64999999999998" y="629.1999999999999" as="sourcePoint" />
            <mxPoint x="154" y="572" as="targetPoint" />
          </mxGeometry>
        </mxCell>
        <mxCell id="yZLABqvoOxmxMA5Gtb_R-23" value="&lt;span style=&quot;font-size: 15px;&quot;&gt;INetwork&lt;/span&gt;" style="text;strokeColor=none;fillColor=none;align=left;verticalAlign=middle;spacingLeft=4;spacingRight=4;overflow=hidden;points=[[0,0.5],[1,0.5]];portConstraint=eastwest;rotatable=0;whiteSpace=wrap;html=1;fontSize=15;" vertex="1" parent="1">
          <mxGeometry x="200" y="534" width="80" height="26" as="geometry" />
        </mxCell>
        <mxCell id="yZLABqvoOxmxMA5Gtb_R-25" value="" style="rounded=0;orthogonalLoop=1;jettySize=auto;html=1;endArrow=halfCircle;endFill=0;endSize=6;strokeWidth=1;sketch=0;exitX=0.275;exitY=-0.019;exitDx=0;exitDy=0;exitPerimeter=0;" edge="1" parent="1">
          <mxGeometry relative="1" as="geometry">
            <mxPoint x="280" y="510" as="sourcePoint" />
            <mxPoint x="280" y="542" as="targetPoint" />
          </mxGeometry>
        </mxCell>
        <mxCell id="yZLABqvoOxmxMA5Gtb_R-26" value="&lt;span style=&quot;font-size: 22px;&quot;&gt;Удаленная машина&lt;/span&gt;" style="verticalAlign=top;align=left;spacingTop=8;spacingLeft=2;spacingRight=12;shape=cube;size=10;direction=south;fontStyle=4;html=1;whiteSpace=wrap;" vertex="1" parent="1">
          <mxGeometry x="550" y="350" width="420" height="470" as="geometry" />
        </mxCell>
        <mxCell id="yZLABqvoOxmxMA5Gtb_R-46" style="edgeStyle=orthogonalEdgeStyle;rounded=0;orthogonalLoop=1;jettySize=auto;html=1;dashed=1;" edge="1" parent="1" source="yZLABqvoOxmxMA5Gtb_R-27" target="yZLABqvoOxmxMA5Gtb_R-31">
          <mxGeometry relative="1" as="geometry">
            <Array as="points">
              <mxPoint x="627" y="630" />
            </Array>
          </mxGeometry>
        </mxCell>
        <mxCell id="yZLABqvoOxmxMA5Gtb_R-27" value="&lt;font style=&quot;font-size: 18px;&quot;&gt;VPS&lt;/font&gt;" style="verticalAlign=top;align=left;spacingTop=8;spacingLeft=2;spacingRight=12;shape=cube;size=10;direction=south;fontStyle=4;html=1;whiteSpace=wrap;fillColor=#FFFFCC;" vertex="1" parent="1">
          <mxGeometry x="570" y="412" width="114.38" height="128" as="geometry" />
        </mxCell>
        <mxCell id="yZLABqvoOxmxMA5Gtb_R-45" style="edgeStyle=orthogonalEdgeStyle;rounded=0;orthogonalLoop=1;jettySize=auto;html=1;dashed=1;" edge="1" parent="1" source="yZLABqvoOxmxMA5Gtb_R-28" target="yZLABqvoOxmxMA5Gtb_R-31">
          <mxGeometry relative="1" as="geometry">
            <Array as="points">
              <mxPoint x="860" y="630" />
            </Array>
          </mxGeometry>
        </mxCell>
        <mxCell id="yZLABqvoOxmxMA5Gtb_R-28" value="&lt;font style=&quot;font-size: 18px;&quot;&gt;VPS&lt;/font&gt;" style="verticalAlign=top;align=left;spacingTop=8;spacingLeft=2;spacingRight=12;shape=cube;size=10;direction=south;fontStyle=4;html=1;whiteSpace=wrap;fillColor=#CCFFFF;" vertex="1" parent="1">
          <mxGeometry x="810" y="412" width="114.38" height="128" as="geometry" />
        </mxCell>
        <mxCell id="yZLABqvoOxmxMA5Gtb_R-29" value="&lt;span style=&quot;font-weight: normal;&quot;&gt;Парсер онлайн &lt;br&gt;магазинов&lt;/span&gt;" style="text;align=center;fontStyle=1;verticalAlign=middle;spacingLeft=3;spacingRight=3;strokeColor=none;rotatable=0;points=[[0,0.5],[1,0.5]];portConstraint=eastwest;html=1;" vertex="1" parent="1">
          <mxGeometry x="820" y="480" width="80" height="26" as="geometry" />
        </mxCell>
        <mxCell id="yZLABqvoOxmxMA5Gtb_R-30" value="&lt;span style=&quot;font-weight: 400;&quot;&gt;Поиск продуктов&lt;br&gt;&lt;/span&gt;&lt;span style=&quot;font-weight: normal;&quot;&gt;по штрих-коду&lt;/span&gt;" style="text;align=center;fontStyle=1;verticalAlign=middle;spacingLeft=3;spacingRight=3;strokeColor=none;rotatable=0;points=[[0,0.5],[1,0.5]];portConstraint=eastwest;html=1;" vertex="1" parent="1">
          <mxGeometry x="580" y="470" width="80" height="26" as="geometry" />
        </mxCell>
        <mxCell id="yZLABqvoOxmxMA5Gtb_R-31" value="Postgresql" style="shape=cylinder3;whiteSpace=wrap;html=1;boundedLbl=1;backgroundOutline=1;size=15;fillColor=#d5e8d4;strokeColor=#82b366;" vertex="1" parent="1">
          <mxGeometry x="710" y="575" width="82.5" height="110" as="geometry" />
        </mxCell>
        <mxCell id="yZLABqvoOxmxMA5Gtb_R-32" value="SQLite" style="shape=cylinder3;whiteSpace=wrap;html=1;boundedLbl=1;backgroundOutline=1;size=15;fillColor=#d5e8d4;strokeColor=#82b366;" vertex="1" parent="1">
          <mxGeometry x="250" y="725" width="60" height="80" as="geometry" />
        </mxCell>
        <mxCell id="yZLABqvoOxmxMA5Gtb_R-33" value="" style="rounded=0;orthogonalLoop=1;jettySize=auto;html=1;endArrow=none;endFill=0;sketch=0;sourcePerimeterSpacing=0;targetPerimeterSpacing=0;" edge="1" target="yZLABqvoOxmxMA5Gtb_R-35" parent="1" source="yZLABqvoOxmxMA5Gtb_R-28">
          <mxGeometry relative="1" as="geometry">
            <mxPoint x="1060" y="625" as="sourcePoint" />
          </mxGeometry>
        </mxCell>
        <mxCell id="yZLABqvoOxmxMA5Gtb_R-34" value="" style="rounded=0;orthogonalLoop=1;jettySize=auto;html=1;endArrow=halfCircle;endFill=0;entryX=0.5;entryY=0.5;endSize=6;strokeWidth=1;sketch=0;" edge="1" target="yZLABqvoOxmxMA5Gtb_R-35" parent="1" source="yZLABqvoOxmxMA5Gtb_R-27">
          <mxGeometry relative="1" as="geometry">
            <mxPoint x="1100" y="625" as="sourcePoint" />
          </mxGeometry>
        </mxCell>
        <mxCell id="yZLABqvoOxmxMA5Gtb_R-35" value="" style="ellipse;whiteSpace=wrap;html=1;align=center;aspect=fixed;resizable=0;points=[];outlineConnect=0;sketch=0;" vertex="1" parent="1">
          <mxGeometry x="740" y="471" width="10" height="10" as="geometry" />
        </mxCell>
        <mxCell id="yZLABqvoOxmxMA5Gtb_R-36" value="" style="html=1;verticalAlign=bottom;labelBackgroundColor=none;endArrow=block;endFill=1;dashed=1;rounded=0;" edge="1" parent="1" source="yZLABqvoOxmxMA5Gtb_R-27" target="yZLABqvoOxmxMA5Gtb_R-28">
          <mxGeometry width="160" relative="1" as="geometry">
            <mxPoint x="680" y="476" as="sourcePoint" />
            <mxPoint x="840" y="476" as="targetPoint" />
          </mxGeometry>
        </mxCell>
        <mxCell id="yZLABqvoOxmxMA5Gtb_R-48" value="" style="rounded=0;orthogonalLoop=1;jettySize=auto;html=1;endArrow=none;endFill=0;sketch=0;sourcePerimeterSpacing=0;targetPerimeterSpacing=0;" edge="1" target="yZLABqvoOxmxMA5Gtb_R-50" parent="1" source="yZLABqvoOxmxMA5Gtb_R-27">
          <mxGeometry relative="1" as="geometry">
            <mxPoint x="490" y="575" as="sourcePoint" />
          </mxGeometry>
        </mxCell>
        <mxCell id="yZLABqvoOxmxMA5Gtb_R-50" value="" style="ellipse;whiteSpace=wrap;html=1;align=center;aspect=fixed;resizable=0;points=[];outlineConnect=0;sketch=0;" vertex="1" parent="1">
          <mxGeometry x="440" y="550" width="10" height="10" as="geometry" />
        </mxCell>
        <mxCell id="yZLABqvoOxmxMA5Gtb_R-55" value="" style="html=1;verticalAlign=bottom;labelBackgroundColor=none;endArrow=open;endFill=0;dashed=1;rounded=0;" edge="1" parent="1" target="yZLABqvoOxmxMA5Gtb_R-50">
          <mxGeometry width="160" relative="1" as="geometry">
            <mxPoint x="280" y="540" as="sourcePoint" />
            <mxPoint x="540" y="580" as="targetPoint" />
          </mxGeometry>
        </mxCell>
      </root>
    </mxGraphModel>
  </diagram>
</mxfile>
